# xmcd
#
# Track frame offsets:
#	150
#	13370
#	25885
#	37530
#	49387
#	62867
#	72902
#	88075
#	101867
#	112672
#	123710
#	134600
#	148800
#	160475
#	171087
#	188397
#
# Disc length: 2713 seconds
#
# Revision: 0
# Processed by: cddbd v1.5.1PL0 Copyright (c) Steve Scherf et al.
# Submitted via: audiograbber 1.83.01
#
DISCID=e50a9710
DTITLE=Kenny Rogers - Kenny Rogers
DYEAR=1900
DGENRE=Country
TTITLE0=Ruby Don't Take Your Love To Town
TTITLE1=Reuben James
TTITLE2=Me And Bobby McGee
TTITLE3=Elvira
TTITLE4=Shine On Ruby Mountain
TTITLE5=Where Does Rosie Go
TTITLE6=Tell It All Brother
TTITLE7=I'm Going To Sing You A Sad Song Suzie
TTITLE8=We All Got The Help Of Each Other
TTITLE9=Always Leaving Always Gone
TTITLE10=She Even Woke Me Up To Say Goodbye
TTITLE11=Sunshine
TTITLE12=Poem From My Little Lady
TTITLE13=Ticket To Nowher
TTITLE14=Something's Burning
TTITLE15=Conditions (Justed Dropped In)
EXTD=
EXTT0=
EXTT1=
EXTT2=
EXTT3=
EXTT4=
EXTT5=
EXTT6=
EXTT7=
EXTT8=
EXTT9=
EXTT10=
EXTT11=
EXTT12=
EXTT13=
EXTT14=
EXTT15=
PLAYORDER=
